<svg width="27" height="22" viewBox="0 0 27 22" fill="none" xmlns="http://www.w3.org/2000/svg">
<g clip-path="url(#clip0_10_229)">
<path d="M19.7259 1.37061H11.6345C9.16122 1.37061 7.14657 2.96205 7.14657 4.91578V7.45175H9.43967V4.91578C9.43967 3.95832 10.4224 3.18201 11.6345 3.18201H19.7259C20.9379 3.18201 21.9207 3.95832 21.9207 4.91578V17.7379C21.9207 18.6954 20.9379 19.4717 19.7259 19.4717H11.6345C10.4224 19.4717 9.43967 18.6954 9.43967 17.7379V15.2149H7.14657V17.7509C7.14657 19.7046 9.16122 21.296 11.6345 21.296H19.7259C22.1992 21.296 24.2138 19.7046 24.2138 17.7509V4.91578C24.2138 2.96205 22.1992 1.37061 19.7259 1.37061ZM13.2069 16.5088L19.7586 11.3333L13.2069 6.15789V10.4276H1.74139V12.239H13.2069V16.5088Z" fill="white"/>
</g>
<defs>
<clipPath id="clip0_10_229">
<rect width="26.2069" height="20.7018" fill="white" transform="translate(0.103455 0.982452)"/>
</clipPath>
</defs>
</svg>
