<svg width="40" height="40" viewBox="0 0 40 40" fill="none" xmlns="http://www.w3.org/2000/svg">
<path opacity="0.5" d="M36.6667 23.3333V19.6632C36.6667 15.2759 36.6667 13.0822 35.3842 11.6564C35.2663 11.5252 35.1415 11.4004 35.0103 11.2824C33.5843 10 31.3908 9.99999 27.0035 9.99999H26.3807C24.4578 9.99999 23.4965 9.99999 22.6007 9.74463C22.1085 9.60433 21.634 9.40784 21.1868 9.15904C20.3728 8.70611 19.693 8.02629 18.3333 6.66666L17.4162 5.74958C16.9605 5.29388 16.7327 5.06601 16.4932 4.86751C15.4609 4.01173 14.1944 3.48714 12.8593 3.36229C12.5496 3.33333 12.2274 3.33333 11.5829 3.33333C10.112 3.33333 9.37659 3.33333 8.76399 3.44891C6.06719 3.95773 3.95774 6.06718 3.44893 8.76398C3.33334 9.37658 3.33334 10.112 3.33334 11.5829V23.3333C3.33334 29.6187 3.33334 32.7615 5.28596 34.714C7.23859 36.6667 10.3813 36.6667 16.6667 36.6667H23.3333C29.6187 36.6667 32.7615 36.6667 34.714 34.714C36.6667 32.7615 36.6667 29.6187 36.6667 23.3333Z" fill="#0D1B1E"/>
<path d="M20.4167 16.6667C20.4167 15.9763 20.9763 15.4167 21.6667 15.4167H30C30.6903 15.4167 31.25 15.9763 31.25 16.6667C31.25 17.357 30.6903 17.9167 30 17.9167H21.6667C20.9763 17.9167 20.4167 17.357 20.4167 16.6667Z" fill="#0D1B1E"/>
</svg>
